<svg id="Ebene_1" xmlns="http://www.w3.org/2000/svg" viewBox="0 0 32 26"><style>.st0{fill:#fff}</style><path class="st0" d="M25.9 13H19c-.3 0-.6 0-.9.1-1-1.8-3-3.1-5.2-3.1H6c-3.3 0-6 2.7-6 6v6.9h2V16c0-2.2 1.8-4 4-4h6.9c1.4 0 2.5.7 3.3 1.7-1.9 1-3.2 3-3.2 5.3v6.9h2V19c0-1.4.7-2.7 1.9-3.4.6-.4 1.2-.6 1.9-.6H25.9c2.2 0 4 1.8 4 4v7h2v-7c0-3.3-2.7-6-6-6z"/><path class="st0" d="M22.5 12C25 12 27 10 27 7.5S25 3 22.5 3 18 5 18 7.5s2 4.5 4.5 4.5zm0-7C23.9 5 25 6.1 25 7.5S23.9 10 22.5 10 20 8.9 20 7.5 21.1 5 22.5 5zM9.5 9C12 9 14 7 14 4.5S12 0 9.5 0 5 2 5 4.5 7 9 9.5 9zm0-7C10.9 2 12 3.1 12 4.5S10.9 7 9.5 7 7 5.9 7 4.5 8.1 2 9.5 2z"/></svg>